<?xml version="1.0" encoding="UTF-8" standalone="no"?>
<svg width="14px" height="12px" viewBox="0 0 14 12" version="1.1" xmlns="http://www.w3.org/2000/svg" xmlns:xlink="http://www.w3.org/1999/xlink">
    <!-- Generator: Sketch 50.2 (55047) - http://www.bohemiancoding.com/sketch -->
    <title>menu</title>
    <desc>Created with Sketch.</desc>
    <defs></defs>
    <g id="Page-1" stroke="none" stroke-width="1" fill="none" fill-rule="evenodd">
        <g id="menu" fill="#FFFFFF" fill-rule="nonzero">
            <path d="M14,5 L0,5 C-0.552285,5 -1,5.44772 -1,6 C-1,6.55228 -0.552285,7 0,7 L14,7 C14.5523,7 15,6.55228 15,6 C15,5.44772 14.5523,5 14,5 Z" id="Shape" transform="translate(7.000000, 6.000000) rotate(40.000000) translate(-7.000000, -6.000000) "></path>
            <path d="M14,5 L0,5 C-0.552285,5 -1,5.44772 -1,6 C-1,6.55228 -0.552285,7 0,7 L14,7 C14.5523,7 15,6.55228 15,6 C15,5.44772 14.5523,5 14,5 Z" id="Shape" transform="translate(7.000000, 6.000000) rotate(-40.000000) translate(-7.000000, -6.000000) "></path>
        </g>
    </g>
</svg>